<svg width="177" height="191" viewBox="0 0 177 191" fill="none" xmlns="http://www.w3.org/2000/svg">
<path d="M7.22684 97.187L161.232 19.5118C163.347 18.445 165.806 20.1355 165.568 22.4925L154.135 135.474C153.951 137.291 152.201 138.523 150.429 138.084L7.85669 102.778C5.15497 102.109 4.74171 98.4404 7.22684 97.187Z" fill="url(#paint0_linear_55_255)"/>
<path d="M74.8613 119.861L158.976 20.4529C161.243 17.7739 165.478 20.4989 163.979 23.6721L88.1225 184.255C86.8464 186.956 82.8366 186.336 82.4369 183.375L74.1784 122.2C74.0648 121.359 74.3129 120.509 74.8613 119.861Z" fill="url(#paint1_linear_55_255)"/>
<defs>
<linearGradient id="paint0_linear_55_255" x1="166.119" y1="17.0471" x2="84.5042" y2="180.985" gradientUnits="userSpaceOnUse">
<stop stop-color="#3AA3F8"/>
<stop offset="1" stop-color="#063060"/>
</linearGradient>
<linearGradient id="paint1_linear_55_255" x1="173.744" y1="3" x2="19.1351" y2="122.342" gradientUnits="userSpaceOnUse">
<stop stop-color="#3AA3F8"/>
<stop offset="1" stop-color="#063060"/>
</linearGradient>
</defs>
</svg>
